<mxfile host="65bd71144e">
    <diagram name="Seite-1" id="JvYcZDYXdsc5KMgwU-WT">
        <mxGraphModel dx="67" dy="643" grid="1" gridSize="10" guides="1" tooltips="1" connect="1" arrows="1" fold="1" page="1" pageScale="1" pageWidth="827" pageHeight="1169" math="0" shadow="0">
            <root>
                <mxCell id="0"/>
                <mxCell id="1" parent="0"/>
                <mxCell id="aMhe-Jjye4vUiKUyPo6Q-1" style="edgeStyle=orthogonalEdgeStyle;rounded=0;orthogonalLoop=1;jettySize=auto;html=1;exitX=0;exitY=0.25;exitDx=0;exitDy=0;entryX=1;entryY=0.25;entryDx=0;entryDy=0;" parent="1" source="aMhe-Jjye4vUiKUyPo6Q-5" target="aMhe-Jjye4vUiKUyPo6Q-13" edge="1">
                    <mxGeometry relative="1" as="geometry"/>
                </mxCell>
                <mxCell id="aMhe-Jjye4vUiKUyPo6Q-2" style="edgeStyle=orthogonalEdgeStyle;rounded=0;orthogonalLoop=1;jettySize=auto;html=1;exitX=0.25;exitY=1;exitDx=0;exitDy=0;entryX=0.25;entryY=0;entryDx=0;entryDy=0;" parent="1" source="aMhe-Jjye4vUiKUyPo6Q-5" target="aMhe-Jjye4vUiKUyPo6Q-15" edge="1">
                    <mxGeometry relative="1" as="geometry"/>
                </mxCell>
                <mxCell id="aMhe-Jjye4vUiKUyPo6Q-3" style="edgeStyle=orthogonalEdgeStyle;rounded=1;orthogonalLoop=1;jettySize=auto;html=1;exitX=1;exitY=0.25;exitDx=0;exitDy=0;entryX=0.75;entryY=1;entryDx=0;entryDy=0;curved=0;" parent="1" source="aMhe-Jjye4vUiKUyPo6Q-5" target="aMhe-Jjye4vUiKUyPo6Q-8" edge="1">
                    <mxGeometry relative="1" as="geometry">
                        <Array as="points">
                            <mxPoint x="1410" y="290"/>
                        </Array>
                    </mxGeometry>
                </mxCell>
                <mxCell id="aMhe-Jjye4vUiKUyPo6Q-4" style="edgeStyle=orthogonalEdgeStyle;rounded=1;orthogonalLoop=1;jettySize=auto;html=1;exitX=1;exitY=0.75;exitDx=0;exitDy=0;entryX=1;entryY=0.25;entryDx=0;entryDy=0;curved=0;" parent="1" source="aMhe-Jjye4vUiKUyPo6Q-5" target="aMhe-Jjye4vUiKUyPo6Q-11" edge="1">
                    <mxGeometry relative="1" as="geometry">
                        <Array as="points">
                            <mxPoint x="1460" y="310"/>
                            <mxPoint x="1460" y="50"/>
                        </Array>
                    </mxGeometry>
                </mxCell>
                <mxCell id="aMhe-Jjye4vUiKUyPo6Q-5" value="GAIA API" style="rounded=1;whiteSpace=wrap;html=1;fillColor=#f8cecc;strokeColor=#b85450;fontColor=#000000;" parent="1" vertex="1">
                    <mxGeometry x="1160" y="280" width="120" height="40" as="geometry"/>
                </mxCell>
                <mxCell id="aMhe-Jjye4vUiKUyPo6Q-6" style="edgeStyle=orthogonalEdgeStyle;rounded=1;orthogonalLoop=1;jettySize=auto;html=1;curved=0;entryX=0.656;entryY=0.042;entryDx=0;entryDy=0;exitX=0.25;exitY=1;exitDx=0;exitDy=0;entryPerimeter=0;" parent="1" source="aMhe-Jjye4vUiKUyPo6Q-8" target="aMhe-Jjye4vUiKUyPo6Q-5" edge="1">
                    <mxGeometry relative="1" as="geometry">
                        <mxPoint x="1350" y="200" as="sourcePoint"/>
                        <Array as="points">
                            <mxPoint x="1350" y="220"/>
                            <mxPoint x="1240" y="220"/>
                            <mxPoint x="1240" y="280"/>
                            <mxPoint x="1239" y="280"/>
                        </Array>
                    </mxGeometry>
                </mxCell>
                <mxCell id="aMhe-Jjye4vUiKUyPo6Q-7" style="edgeStyle=orthogonalEdgeStyle;rounded=1;orthogonalLoop=1;jettySize=auto;html=1;exitX=0.75;exitY=0;exitDx=0;exitDy=0;entryX=1;entryY=0.75;entryDx=0;entryDy=0;curved=0;" parent="1" source="aMhe-Jjye4vUiKUyPo6Q-8" target="aMhe-Jjye4vUiKUyPo6Q-11" edge="1">
                    <mxGeometry relative="1" as="geometry"/>
                </mxCell>
                <mxCell id="aMhe-Jjye4vUiKUyPo6Q-8" value="ChatBot" style="rounded=1;whiteSpace=wrap;html=1;fillColor=#dae8fc;strokeColor=#6c8ebf;fontColor=#000000;" parent="1" vertex="1">
                    <mxGeometry x="1320" y="160" width="120" height="40" as="geometry"/>
                </mxCell>
                <mxCell id="aMhe-Jjye4vUiKUyPo6Q-9" style="edgeStyle=orthogonalEdgeStyle;rounded=1;orthogonalLoop=1;jettySize=auto;html=1;exitX=0.75;exitY=1;exitDx=0;exitDy=0;curved=0;" parent="1" source="aMhe-Jjye4vUiKUyPo6Q-11" edge="1">
                    <mxGeometry relative="1" as="geometry">
                        <mxPoint x="1350" y="160" as="targetPoint"/>
                        <Array as="points">
                            <mxPoint x="1250" y="120"/>
                            <mxPoint x="1350" y="120"/>
                            <mxPoint x="1350" y="160"/>
                        </Array>
                    </mxGeometry>
                </mxCell>
                <mxCell id="aMhe-Jjye4vUiKUyPo6Q-10" style="edgeStyle=orthogonalEdgeStyle;rounded=1;orthogonalLoop=1;jettySize=auto;html=1;exitX=0.25;exitY=1;exitDx=0;exitDy=0;entryX=0.25;entryY=0;entryDx=0;entryDy=0;curved=0;" parent="1" source="aMhe-Jjye4vUiKUyPo6Q-11" target="aMhe-Jjye4vUiKUyPo6Q-5" edge="1">
                    <mxGeometry relative="1" as="geometry">
                        <mxPoint x="1180" y="80" as="sourcePoint"/>
                        <mxPoint x="1180" y="280" as="targetPoint"/>
                    </mxGeometry>
                </mxCell>
                <mxCell id="aMhe-Jjye4vUiKUyPo6Q-11" value="User" style="rounded=1;whiteSpace=wrap;html=1;fillColor=#fff2cc;strokeColor=#d6b656;fontColor=#000000;" parent="1" vertex="1">
                    <mxGeometry x="1160" y="40" width="120" height="40" as="geometry"/>
                </mxCell>
                <mxCell id="aMhe-Jjye4vUiKUyPo6Q-12" style="edgeStyle=orthogonalEdgeStyle;rounded=0;orthogonalLoop=1;jettySize=auto;html=1;exitX=1;exitY=0.75;exitDx=0;exitDy=0;entryX=0;entryY=0.75;entryDx=0;entryDy=0;" parent="1" source="aMhe-Jjye4vUiKUyPo6Q-13" target="aMhe-Jjye4vUiKUyPo6Q-5" edge="1">
                    <mxGeometry relative="1" as="geometry"/>
                </mxCell>
                <mxCell id="aMhe-Jjye4vUiKUyPo6Q-13" value="Vector DB" style="rounded=1;whiteSpace=wrap;html=1;fillColor=#f5f5f5;fontColor=#333333;strokeColor=#666666;" parent="1" vertex="1">
                    <mxGeometry x="960" y="280" width="120" height="40" as="geometry"/>
                </mxCell>
                <mxCell id="aMhe-Jjye4vUiKUyPo6Q-14" style="edgeStyle=orthogonalEdgeStyle;rounded=0;orthogonalLoop=1;jettySize=auto;html=1;exitX=0.75;exitY=0;exitDx=0;exitDy=0;entryX=0.75;entryY=1;entryDx=0;entryDy=0;" parent="1" source="aMhe-Jjye4vUiKUyPo6Q-15" target="aMhe-Jjye4vUiKUyPo6Q-5" edge="1">
                    <mxGeometry relative="1" as="geometry"/>
                </mxCell>
                <mxCell id="aMhe-Jjye4vUiKUyPo6Q-15" value="LLM API" style="rounded=1;whiteSpace=wrap;html=1;fillColor=#e1d5e7;strokeColor=#9673a6;fontColor=#000000;" parent="1" vertex="1">
                    <mxGeometry x="1160" y="400" width="120" height="40" as="geometry"/>
                </mxCell>
                <mxCell id="aMhe-Jjye4vUiKUyPo6Q-17" style="rounded=1;orthogonalLoop=1;jettySize=auto;html=1;curved=0;startArrow=classic;startFill=1;entryX=0;entryY=1;entryDx=0;entryDy=0;exitX=1;exitY=0;exitDx=0;exitDy=0;" parent="1" source="aMhe-Jjye4vUiKUyPo6Q-16" target="aMhe-Jjye4vUiKUyPo6Q-5" edge="1">
                    <mxGeometry relative="1" as="geometry"/>
                </mxCell>
                <mxCell id="aMhe-Jjye4vUiKUyPo6Q-16" value="Mongo DB" style="rounded=1;whiteSpace=wrap;html=1;fillColor=#d5e8d4;strokeColor=#82b366;fontColor=#000000;" parent="1" vertex="1">
                    <mxGeometry x="960" y="400" width="120" height="40" as="geometry"/>
                </mxCell>
            </root>
        </mxGraphModel>
    </diagram>
</mxfile>